<svg version="1.2" xmlns="http://www.w3.org/2000/svg" viewBox="0 0 24 24" width="24" height="24">
	<title>favicon-svg</title>
	<defs>
		<linearGradient id="g1" x2="1" gradientUnits="userSpaceOnUse" gradientTransform="matrix(-6.187,10.73,-11.379,-6.561,7.948,8.016)">
			<stop offset="0" stop-color="#000000" stop-opacity="1"/>
			<stop offset="1" stop-color="#000000" stop-opacity="0"/>
		</linearGradient>
		<linearGradient id="g2" x2="1" gradientUnits="userSpaceOnUse" gradientTransform="matrix(7.954,10.501,-15.211,11.521,7.602,5.871)">
			<stop offset="0" stop-color="#000000" stop-opacity="1"/>
			<stop offset="1" stop-color="#000000" stop-opacity="0"/>
		</linearGradient>
		<linearGradient id="g3" x2="1" gradientUnits="userSpaceOnUse" gradientTransform="matrix(-2.639,10.834,-14.306,-3.485,16.808,13.007)">
			<stop offset="0" stop-color="#000000" stop-opacity="1"/>
			<stop offset="1" stop-color="#000000" stop-opacity="0"/>
		</linearGradient>
	</defs>
	<style>
		.s0 { fill: #ffffff } 
		.s1 { fill: #6f09bd } 
		.s2 { opacity: .5;mix-blend-mode: hard-light;fill: #6f09bd } 
		.s3 { opacity: .1;fill: #6f09bd;stroke: url(#g1);stroke-width: .4 } 
		.s4 { opacity: .1;fill: none;stroke: url(#g2);stroke-width: .4 } 
		.s5 { opacity: .2;mix-blend-mode: hard-light;fill: #6f09bd } 
		.s6 { opacity: .1;fill: #6f09bd;stroke: url(#g3);stroke-width: .4 } 
	</style>
	<path class="s0" d="m8 21.1c-3.1 0-5.7-1.6-7-4.8-1.3-3.2-0.9-7.1 0.7-10.7 3.1 0 5.7 1.7 7 4.9 1.3 3.1 0.9 7.1-0.7 10.6z"/>
	<path class="s1" d="m8 21.1c-3.1 0-5.7-1.6-7-4.8-1.3-3.2-0.9-7.1 0.7-10.7 3.1 0 5.7 1.7 7 4.9 1.3 3.1 0.9 7.1-0.7 10.6z"/>
	<path class="s2" d="m8 21.1c-3.1 0-5.7-1.6-7-4.8-1.3-3.2-0.9-7.1 0.7-10.7 3.1 0 5.7 1.7 7 4.9 1.3 3.1 0.9 7.1-0.7 10.6z"/>
	<path class="s2" d="m8 21.1c-3.1 0-5.7-1.6-7-4.8-1.3-3.2-0.9-7.1 0.7-10.7 3.1 0 5.7 1.7 7 4.9 1.3 3.1 0.9 7.1-0.7 10.6z"/>
	<path fill-rule="evenodd" class="s3" d="m8.7 10.5c1.2 3.1 0.9 7.1-0.8 10.6-3 0-5.6-1.7-6.9-4.8-1.2-3.2-0.9-7.1 0.8-10.7 3 0.1 5.6 1.7 6.9 4.9z"/>
	<path class="s1" d="m7.3 21.3c4.1-1.1 7.6-3.9 9.3-8.1 1.8-4.1 1.3-8.6-0.7-12.2-4.1 1-7.6 3.9-9.4 8-1.7 4.1-1.3 8.6 0.8 12.3z"/>
	<path class="s1" d="m7.3 21.3c4.1-1.1 7.6-3.9 9.3-8.1 1.8-4.1 1.3-8.6-0.7-12.2-4.1 1-7.6 3.9-9.4 8-1.7 4.1-1.3 8.6 0.8 12.3z"/>
	<path fill-rule="evenodd" class="s4" d="m16.6 13.2c-1.7 4.1-5.2 7-9.3 8-2-3.6-2.5-8.1-0.7-12.2 1.7-4.1 5.2-7 9.2-8 2.1 3.6 2.5 8.1 0.8 12.2z"/>
	<path class="s1" d="m7.2 21.2c2.6 2 6 2.8 9.4 1.6 3.3-1.1 5.9-3.9 7.1-7.2-2.5-2-5.9-2.7-9.3-1.6-3.4 1.2-5.9 3.9-7.2 7.2z"/>
	<path class="s1" d="m7.2 21.2c2.6 2 6 2.8 9.4 1.6 3.3-1.1 5.9-3.9 7.1-7.2-2.5-2-5.9-2.7-9.3-1.6-3.4 1.2-5.9 3.9-7.2 7.2z"/>
	<path class="s5" d="m7.2 21.2c2.6 2 6 2.8 9.4 1.6 3.3-1.1 5.9-3.9 7.1-7.2-2.5-2-5.9-2.7-9.3-1.6-3.4 1.2-5.9 3.9-7.2 7.2z"/>
	<path class="s2" d="m7.2 21.2c2.6 2 6 2.8 9.4 1.6 3.3-1.1 5.9-3.9 7.1-7.2-2.5-2-5.9-2.7-9.3-1.6-3.4 1.2-5.9 3.9-7.2 7.2z"/>
	<path fill-rule="evenodd" class="s6" d="m16.6 22.8c-3.4 1.1-6.8 0.4-9.3-1.6 1.2-3.3 3.7-6 7.1-7.1 3.3-1.2 6.8-0.5 9.3 1.5-1.2 3.3-3.8 6.1-7.1 7.2z"/>
</svg>